<svg id="Layer_1" data-name="Layer 1" xmlns="http://www.w3.org/2000/svg" viewBox="0 0 151.88 168.75"><defs><style>.cls-1{fill:#f29a2e;}.cls-2{fill:#8cc63e;}.cls-3{fill:#ce114b;}.cls-4,.cls-6{isolation:isolate;}.cls-4{opacity:0.8;}.cls-5{fill:#a1b8c7;}.cls-6{opacity:0.7;}.cls-7{fill:#f3ffd2;}</style></defs><text x="-83.56" y="-16.92"/><path class="cls-1" d="M197.94,20.7l.08-.24c.53-1.56,0-3.11-1.27-3.46s-2.65.6-3.17,2.15l-34.79,96.22,2.15.76Z" transform="translate(-83.56 -16.92)"/><path class="cls-2" d="M197.45,61.62c-.93,6.62-9.07,11-18.18,9.79s-15.73-7.56-14.8-14.17,9.07-11,18.18-9.8S198.38,55,197.45,61.62Z" transform="translate(-83.56 -16.92)"/><path class="cls-3" d="M177.38,59c-.58,4.16-3.64,7.18-6.84,6.75s-5.31-4.13-4.73-8.29,3.65-7.18,6.85-6.76S178,54.79,177.38,59Z" transform="translate(-83.56 -16.92)"/><path class="cls-2" d="M155,82.57c-3.64,5.67-.27,14.1,7.53,18.82s17.07,4,20.71-1.7.27-14.1-7.53-18.82S158.61,76.9,155,82.57Z" transform="translate(-83.56 -16.92)"/><path class="cls-3" d="M172.15,93c-2.29,3.57-1.92,7.8.82,9.45s6.8.13,9.09-3.44,1.92-7.79-.82-9.45S174.44,89.42,172.15,93Z" transform="translate(-83.56 -16.92)"/><g class="cls-4"><path class="cls-5" d="M159.5,125.88C147.85,125.88,98,70.1,98,70.1H221S171.16,125.88,159.5,125.88Zm75.94-62.33H83.56s53.71,60.11,72.51,68c-.07,6-.48,27.33-2.39,36.51-10.35,9.11-32.09,15.13-32.24,15.19a1.29,1.29,0,0,0-.67,1.36,1.09,1.09,0,0,0,1,1h75.52a1.1,1.1,0,0,0,1-1,1.28,1.28,0,0,0-.67-1.36c-.14-.06-21.95-6.26-32.2-15.2-1.87-9.19-2.26-30.65-2.34-36.55C181.9,123.47,235.44,63.55,235.44,63.55Z" transform="translate(-83.56 -16.92)"/></g><g class="cls-6"><path class="cls-7" d="M208.41,75s-39.64,44.36-48.91,44.36S110.59,75,110.59,75Z" transform="translate(-83.56 -16.92)"/></g></svg>